<svg xmlns="http://www.w3.org/2000/svg" width="320" height="180" viewBox="0 0 320 180" role="img" aria-label="Amazon">
  <rect width="320" height="180" rx="20" fill="#ffffff"/>
  <path
    d="M154.4 22c-21.7 0-38 13.7-38 32 0 8.4 4 12.3 9.8 12.3 4.4 0 7.2-2 8.6-5.4l0.8-2.1c1.5-4.2 3.7-8.4 8.4-12.1 4.8-3.8 10.6-5.9 17-5.9 10.5 0 17.8 6 17.8 15.4 0 7.3-2.8 12.1-12.4 17.5l-8.7 4.8c-18.9 10.5-28.8 25.4-28.8 44 0 23.5 17.1 39.4 43 39.4 15.7 0 28.2-4.8 37.4-14.8 2 5.1 6.3 12.1 11.6 12.1 2.7 0 5.3-1.1 7.6-3.4l14.8-15.3c1.6-1.5 2.4-3.5 2.4-5.4 0-1.9-1-3.9-2.8-6.1-4.8-6.1-6.1-10.1-6.1-20.2V60.5c0-14.4 0.5-27.8-9.8-37.7C213.3 13.1 196.8 8 180.2 8c-8.7 0-17.5 1.4-25.8 4.2ZM178.9 93.6v8.3c0 6.8-0.3 12.4-2.7 18.9-4 10.8-11.3 17.5-19.9 17.5-9.1 0-14.4-6.9-14.4-17.2 0-20.3 18.2-24 37-24.1 0 0 0 0.4 0 0.6Z"
    fill="#111111"
  />
  <path
    d="M70 125c37 22 102 35 160 21 18-4.3 33.7-10.8 47.4-20.3 2.6-1.9 5.8 1.8 3.5 4.3-12.2 13.3-28.3 23.3-47.2 29.8-60.6 20.8-130.6 11.8-169.3-27.4-1.9-1.9 1.2-5 3.9-3.4Z"
    fill="#FF9900"
  />
  <path
    d="M252.2 119.9c8.2-1.4 20.9 0.6 24.2 4.8 3.4 4.1-0.9 16.8-5.6 24.7-1.4 2.4 1.1 4.2 3.4 2.4 14.5-11.7 18.2-36.2 15.1-40.2-3.1-4-27.3-7.5-42.2 2.5-2.3 1.6-1.7 6.3 5.1 5.8Z"
    fill="#FF9900"
  />
</svg>
