<svg xmlns="http://www.w3.org/2000/svg" width="320" height="180" viewBox="0 0 320 180" role="img" aria-label="Arbitrage One">
  <rect width="320" height="180" rx="20" fill="#141223"/>
  <g transform="translate(24 90)">
    <path
      d="M24 -34c4.5 0 8.6 2.2 11.1 6l18.5 28.2c1.8 2.8 0.2 6.5-3.1 7.1l-8.3 1.5c-2.6 0.5-5.2-0.7-6.6-2.9L24  -11.5 12.4 5.9C11 8.1 8.4 9.3 5.8 8.8L-2.5 7.3C-5.8 6.7-7.4 3-5.6 0.2L12.9 -28c2.5-3.8 6.6-6 11.1-6Z"
      fill="#FFFFFF"
    />
    <path
      d="M24 -10.5 11.2 8.4c-1.3 1.9-0.2 4.6 2.1 5l9.3 1.7c1.1 0.2 2.2-0.2 2.8-1.2l11-16.6Z"
      fill="#BFC4D7"
    />
  </g>
  <text x="86" y="100" fill="#FFFFFF" font-family="Arial, Helvetica, sans-serif" font-size="38" font-weight="700" letter-spacing="-0.8">
    ArbitrageOne
  </text>
</svg>
