<svg width="160" height="96" viewBox="0 0 160 96" fill="none" xmlns="http://www.w3.org/2000/svg">
  <defs>
    <linearGradient id="profitPathOrb" x1="48" y1="18" x2="112" y2="78" gradientUnits="userSpaceOnUse">
      <stop stop-color="#6EB4FF"/>
      <stop offset="1" stop-color="#2F78FF"/>
    </linearGradient>
  </defs>
  <rect width="160" height="96" rx="18" fill="#141A24"/>
  <circle cx="80" cy="48" r="33" fill="url(#profitPathOrb)"/>
  <path
    d="M90.8 27.5c4.1 0 7.5 3.4 7.5 7.5 0 2.6-1.3 5-3.5 6.4l-6.8 4.4v16.7c0 3.3-2.7 6-6 6h-7.3v-9h3.7c0.4 0 0.7-0.3 0.7-0.7V51.2l-6.9 4.5c-3.5 2.2-8.1 1.3-10.4-2.2-2.2-3.4-1.3-8 2.1-10.3l6-3.9v-8.8H80v2.7l6.7-4.4c1.2-0.8 2.7-1.3 4.1-1.3Zm-10.7 13-10.4 6.8c-0.7 0.5-0.9 1.4-0.5 2.1 0.5 0.7 1.4 0.9 2.1 0.4l10.4-6.7 9.6-6.3c0.7-0.5 0.9-1.4 0.4-2.1-0.4-0.7-1.4-0.9-2.1-0.4l-9.5 6.2Z"
    fill="#F8FBFF"
  />
</svg>
